<mxfile host="app.diagrams.net" modified="2023-10-24T14:35:22.927Z" agent="Mozilla/5.0 (Windows NT 10.0; Win64; x64) AppleWebKit/537.36 (KHTML, like Gecko) Chrome/118.0.0.0 Safari/537.36" etag="7rOIYZDMax-UEdRFYsdM" version="22.0.6" type="device">
  <diagram name="PÃ¡gina-1" id="dVRDC4ud4Ufa73m5t_Kl">
    <mxGraphModel dx="1985" dy="857" grid="1" gridSize="10" guides="1" tooltips="1" connect="1" arrows="1" fold="1" page="1" pageScale="1" pageWidth="1169" pageHeight="827" math="0" shadow="0">
      <root>
        <mxCell id="0" />
        <mxCell id="1" parent="0" />
        <mxCell id="3-TYIcQOUTe0Zlhidfyi-1" value="Game" style="whiteSpace=wrap;html=1;align=center;" parent="1" vertex="1">
          <mxGeometry x="310" y="230" width="100" height="40" as="geometry" />
        </mxCell>
        <mxCell id="3-TYIcQOUTe0Zlhidfyi-2" value="Player" style="whiteSpace=wrap;html=1;align=center;" parent="1" vertex="1">
          <mxGeometry x="555" y="230" width="100" height="40" as="geometry" />
        </mxCell>
        <mxCell id="3-TYIcQOUTe0Zlhidfyi-4" value="Id" style="ellipse;whiteSpace=wrap;html=1;align=center;fontStyle=4;" parent="1" vertex="1">
          <mxGeometry x="310" y="172.5" width="50" height="40" as="geometry" />
        </mxCell>
        <mxCell id="3-TYIcQOUTe0Zlhidfyi-5" value="Id" style="ellipse;whiteSpace=wrap;html=1;align=center;fontStyle=4;" parent="1" vertex="1">
          <mxGeometry x="580" y="177.5" width="50" height="40" as="geometry" />
        </mxCell>
        <mxCell id="3-TYIcQOUTe0Zlhidfyi-6" value="" style="endArrow=none;html=1;rounded=0;" parent="1" source="3-TYIcQOUTe0Zlhidfyi-1" target="3-TYIcQOUTe0Zlhidfyi-4" edge="1">
          <mxGeometry width="50" height="50" relative="1" as="geometry">
            <mxPoint x="500" y="427.75" as="sourcePoint" />
            <mxPoint x="550" y="377.75" as="targetPoint" />
          </mxGeometry>
        </mxCell>
        <mxCell id="3-TYIcQOUTe0Zlhidfyi-7" value="" style="endArrow=none;html=1;rounded=0;" parent="1" source="3-TYIcQOUTe0Zlhidfyi-2" target="3-TYIcQOUTe0Zlhidfyi-5" edge="1">
          <mxGeometry width="50" height="50" relative="1" as="geometry">
            <mxPoint x="255" y="305.75" as="sourcePoint" />
            <mxPoint x="204" y="289.75" as="targetPoint" />
          </mxGeometry>
        </mxCell>
        <mxCell id="3-TYIcQOUTe0Zlhidfyi-18" value="username" style="ellipse;whiteSpace=wrap;html=1;align=center;" parent="1" vertex="1">
          <mxGeometry x="540" y="297.75" width="60" height="45" as="geometry" />
        </mxCell>
        <mxCell id="3-TYIcQOUTe0Zlhidfyi-19" value="" style="endArrow=none;html=1;rounded=0;" parent="1" source="3-TYIcQOUTe0Zlhidfyi-2" target="3-TYIcQOUTe0Zlhidfyi-18" edge="1">
          <mxGeometry width="50" height="50" relative="1" as="geometry">
            <mxPoint x="627" y="237.75" as="sourcePoint" />
            <mxPoint x="652" y="214.75" as="targetPoint" />
          </mxGeometry>
        </mxCell>
        <mxCell id="3-TYIcQOUTe0Zlhidfyi-20" value="state" style="ellipse;whiteSpace=wrap;html=1;align=center;" parent="1" vertex="1">
          <mxGeometry x="370" y="170" width="50" height="45" as="geometry" />
        </mxCell>
        <mxCell id="3-TYIcQOUTe0Zlhidfyi-21" value="" style="endArrow=none;html=1;rounded=0;" parent="1" source="3-TYIcQOUTe0Zlhidfyi-1" target="3-TYIcQOUTe0Zlhidfyi-20" edge="1">
          <mxGeometry width="50" height="50" relative="1" as="geometry">
            <mxPoint x="368" y="237.75" as="sourcePoint" />
            <mxPoint x="343" y="214.75" as="targetPoint" />
          </mxGeometry>
        </mxCell>
        <mxCell id="3-TYIcQOUTe0Zlhidfyi-27" value="Lobby" style="shape=associativeEntity;whiteSpace=wrap;html=1;align=center;" parent="1" vertex="1">
          <mxGeometry x="430" y="230" width="100" height="40" as="geometry" />
        </mxCell>
        <mxCell id="3-TYIcQOUTe0Zlhidfyi-28" value="" style="endArrow=none;html=1;rounded=0;" parent="1" source="3-TYIcQOUTe0Zlhidfyi-1" target="3-TYIcQOUTe0Zlhidfyi-27" edge="1">
          <mxGeometry relative="1" as="geometry">
            <mxPoint x="343" y="280" as="sourcePoint" />
            <mxPoint x="383" y="380" as="targetPoint" />
          </mxGeometry>
        </mxCell>
        <mxCell id="3-TYIcQOUTe0Zlhidfyi-33" value="" style="endArrow=none;html=1;rounded=0;" parent="1" source="3-TYIcQOUTe0Zlhidfyi-27" target="3-TYIcQOUTe0Zlhidfyi-2" edge="1">
          <mxGeometry relative="1" as="geometry">
            <mxPoint x="343" y="280" as="sourcePoint" />
            <mxPoint x="383" y="380" as="targetPoint" />
          </mxGeometry>
        </mxCell>
        <mxCell id="3-TYIcQOUTe0Zlhidfyi-37" value="played games" style="ellipse;whiteSpace=wrap;html=1;align=center;" parent="1" vertex="1">
          <mxGeometry x="890" y="175" width="60" height="45" as="geometry" />
        </mxCell>
        <mxCell id="3-TYIcQOUTe0Zlhidfyi-42" value="" style="endArrow=none;html=1;rounded=0;" parent="1" source="3-TYIcQOUTe0Zlhidfyi-2" target="S22WEG49EvDat955hLCX-18" edge="1">
          <mxGeometry relative="1" as="geometry">
            <mxPoint x="135" y="185" as="sourcePoint" />
            <mxPoint x="605" y="309" as="targetPoint" />
          </mxGeometry>
        </mxCell>
        <mxCell id="3-TYIcQOUTe0Zlhidfyi-43" value="1" style="resizable=0;html=1;whiteSpace=wrap;align=right;verticalAlign=bottom;" parent="3-TYIcQOUTe0Zlhidfyi-42" connectable="0" vertex="1">
          <mxGeometry x="1" relative="1" as="geometry">
            <mxPoint x="-1" y="1" as="offset" />
          </mxGeometry>
        </mxCell>
        <mxCell id="3-TYIcQOUTe0Zlhidfyi-44" value="" style="endArrow=none;html=1;rounded=0;" parent="1" source="3-TYIcQOUTe0Zlhidfyi-37" target="S22WEG49EvDat955hLCX-15" edge="1">
          <mxGeometry width="50" height="50" relative="1" as="geometry">
            <mxPoint x="596" y="239" as="sourcePoint" />
            <mxPoint x="479.4021739130435" y="354" as="targetPoint" />
          </mxGeometry>
        </mxCell>
        <mxCell id="KP84korM9grnwVg6J2r0-1" value="games won" style="ellipse;whiteSpace=wrap;html=1;align=center;" parent="1" vertex="1">
          <mxGeometry x="800" y="285" width="60" height="45" as="geometry" />
        </mxCell>
        <mxCell id="KP84korM9grnwVg6J2r0-2" value="" style="endArrow=none;html=1;rounded=0;" parent="1" source="KP84korM9grnwVg6J2r0-1" target="S22WEG49EvDat955hLCX-15" edge="1">
          <mxGeometry width="50" height="50" relative="1" as="geometry">
            <mxPoint x="473" y="386.75" as="sourcePoint" />
            <mxPoint x="511.195652173913" y="354" as="targetPoint" />
          </mxGeometry>
        </mxCell>
        <mxCell id="KP84korM9grnwVg6J2r0-3" value="games lost" style="ellipse;whiteSpace=wrap;html=1;align=center;" parent="1" vertex="1">
          <mxGeometry x="880" y="285" width="60" height="45" as="geometry" />
        </mxCell>
        <mxCell id="KP84korM9grnwVg6J2r0-4" value="" style="endArrow=none;html=1;rounded=0;" parent="1" source="KP84korM9grnwVg6J2r0-3" target="S22WEG49EvDat955hLCX-15" edge="1">
          <mxGeometry width="50" height="50" relative="1" as="geometry">
            <mxPoint x="480" y="386.75" as="sourcePoint" />
            <mxPoint x="494.2391304347825" y="354" as="targetPoint" />
          </mxGeometry>
        </mxCell>
        <mxCell id="S22WEG49EvDat955hLCX-1" value="rules" style="ellipse;whiteSpace=wrap;html=1;align=center;" parent="1" vertex="1">
          <mxGeometry x="220" y="227.5" width="50" height="45" as="geometry" />
        </mxCell>
        <mxCell id="S22WEG49EvDat955hLCX-2" value="variant" style="ellipse;whiteSpace=wrap;html=1;align=center;" parent="1" vertex="1">
          <mxGeometry x="280" y="285" width="50" height="45" as="geometry" />
        </mxCell>
        <mxCell id="S22WEG49EvDat955hLCX-3" value="" style="endArrow=none;html=1;rounded=0;" parent="1" source="3-TYIcQOUTe0Zlhidfyi-1" target="S22WEG49EvDat955hLCX-1" edge="1">
          <mxGeometry width="50" height="50" relative="1" as="geometry">
            <mxPoint x="350" y="239.75" as="sourcePoint" />
            <mxPoint x="331" y="220.75" as="targetPoint" />
          </mxGeometry>
        </mxCell>
        <mxCell id="S22WEG49EvDat955hLCX-4" value="" style="endArrow=none;html=1;rounded=0;exitX=0.25;exitY=1;exitDx=0;exitDy=0;" parent="1" source="3-TYIcQOUTe0Zlhidfyi-1" target="S22WEG49EvDat955hLCX-2" edge="1">
          <mxGeometry width="50" height="50" relative="1" as="geometry">
            <mxPoint x="320" y="268.75" as="sourcePoint" />
            <mxPoint x="289" y="274.75" as="targetPoint" />
          </mxGeometry>
        </mxCell>
        <mxCell id="S22WEG49EvDat955hLCX-5" value="board" style="ellipse;whiteSpace=wrap;html=1;align=center;" parent="1" vertex="1">
          <mxGeometry x="245" y="172.5" width="50" height="45.25" as="geometry" />
        </mxCell>
        <mxCell id="S22WEG49EvDat955hLCX-6" value="" style="endArrow=none;html=1;rounded=0;" parent="1" source="3-TYIcQOUTe0Zlhidfyi-1" target="S22WEG49EvDat955hLCX-5" edge="1">
          <mxGeometry width="50" height="50" relative="1" as="geometry">
            <mxPoint x="350" y="239.75" as="sourcePoint" />
            <mxPoint x="331" y="220.75" as="targetPoint" />
          </mxGeometry>
        </mxCell>
        <mxCell id="S22WEG49EvDat955hLCX-7" value="board_size" style="ellipse;whiteSpace=wrap;html=1;align=center;" parent="1" vertex="1">
          <mxGeometry x="370" y="285" width="70" height="45" as="geometry" />
        </mxCell>
        <mxCell id="S22WEG49EvDat955hLCX-8" value="" style="endArrow=none;html=1;rounded=0;" parent="1" source="3-TYIcQOUTe0Zlhidfyi-1" target="S22WEG49EvDat955hLCX-7" edge="1">
          <mxGeometry width="50" height="50" relative="1" as="geometry">
            <mxPoint x="345" y="279.75" as="sourcePoint" />
            <mxPoint x="258" y="308.75" as="targetPoint" />
          </mxGeometry>
        </mxCell>
        <mxCell id="S22WEG49EvDat955hLCX-10" value="" style="shape=link;html=1;rounded=0;" parent="1" source="S22WEG49EvDat955hLCX-15" target="S22WEG49EvDat955hLCX-18" edge="1">
          <mxGeometry relative="1" as="geometry">
            <mxPoint x="540" y="334.28260869565224" as="sourcePoint" />
            <mxPoint x="581.0416666666667" y="335.04166666666663" as="targetPoint" />
          </mxGeometry>
        </mxCell>
        <mxCell id="S22WEG49EvDat955hLCX-11" value="1" style="resizable=0;html=1;whiteSpace=wrap;align=right;verticalAlign=bottom;" parent="S22WEG49EvDat955hLCX-10" connectable="0" vertex="1">
          <mxGeometry x="1" relative="1" as="geometry">
            <mxPoint x="15" as="offset" />
          </mxGeometry>
        </mxCell>
        <mxCell id="S22WEG49EvDat955hLCX-12" value="rank" style="ellipse;whiteSpace=wrap;html=1;align=center;" parent="1" vertex="1">
          <mxGeometry x="810" y="175" width="60" height="45" as="geometry" />
        </mxCell>
        <mxCell id="S22WEG49EvDat955hLCX-13" value="" style="endArrow=none;html=1;rounded=0;" parent="1" source="S22WEG49EvDat955hLCX-12" target="S22WEG49EvDat955hLCX-15" edge="1">
          <mxGeometry width="50" height="50" relative="1" as="geometry">
            <mxPoint x="461" y="415.75" as="sourcePoint" />
            <mxPoint x="443.57142857142867" y="354" as="targetPoint" />
          </mxGeometry>
        </mxCell>
        <mxCell id="S22WEG49EvDat955hLCX-15" value="Ranking" style="shape=ext;margin=3;double=1;whiteSpace=wrap;html=1;align=center;" parent="1" vertex="1">
          <mxGeometry x="810" y="230" width="100" height="40" as="geometry" />
        </mxCell>
        <mxCell id="S22WEG49EvDat955hLCX-16" value="password" style="ellipse;whiteSpace=wrap;html=1;align=center;" parent="1" vertex="1">
          <mxGeometry x="620" y="297.75" width="60" height="45" as="geometry" />
        </mxCell>
        <mxCell id="S22WEG49EvDat955hLCX-17" value="" style="endArrow=none;html=1;rounded=0;" parent="1" source="3-TYIcQOUTe0Zlhidfyi-2" target="S22WEG49EvDat955hLCX-16" edge="1">
          <mxGeometry width="50" height="50" relative="1" as="geometry">
            <mxPoint x="632" y="239.75" as="sourcePoint" />
            <mxPoint x="651" y="216.75" as="targetPoint" />
          </mxGeometry>
        </mxCell>
        <mxCell id="S22WEG49EvDat955hLCX-18" value="has" style="shape=rhombus;double=1;perimeter=rhombusPerimeter;whiteSpace=wrap;html=1;align=center;direction=west;" parent="1" vertex="1">
          <mxGeometry x="695" y="220" width="60" height="60" as="geometry" />
        </mxCell>
      </root>
    </mxGraphModel>
  </diagram>
</mxfile>
